Simulation
nRows=32
nColumns=15
endheader
time  TH_x TH_y TH_z SC_y  SC_z  SC_x  AC_y  AC_z  AC_x  GH_y  GH_z  GH_yy  EL_x  PS_y
0.0  0.000000  0.000000  0.000000  -40.97484877243665  6.293857566463187  5.290427962726946  44.2354239620253  7.291939125488718  0.013131387103005685  175.41926443248985  6.599992180569773  -150.2227097735788  22.64327179889021  120.000000
0.05745  0.000000  0.000000  0.000000  -39.068242045666636  5.950126695992454  3.284179419649399  43.40990654467654  7.375996450198144  0.25204550343031396  171.57124805641578  3.5550279759498307  -147.47167449781924  22.06143592575097  120.000000
0.1149  0.000000  0.000000  0.000000  -37.31264076283545  5.4576049744101205  1.2693103860722312  42.67045050664399  7.2738717215161115  0.5143124299805526  137.07007037499903  0.8397272755509203  -114.05558536761079  21.658921381707025  120.000000
0.17235  0.000000  0.000000  0.000000  -35.81320642407243  4.870318691939237  -0.6523024539098663  42.056175900081136  7.0436334760884955  0.8110376643660416  18.549204757175527  2.2856794190397767  3.3799911707469987  21.516263994405925  120.000000
0.2298  0.000000  0.000000  0.000000  -34.62138427230399  4.261752414488363  -2.4057813700129786  41.588112837558086  6.775066153179341  1.1506075914522935  11.165257913715307  4.984526446936507  9.668526843032307  21.641520076559782  120.000000
0.28725  0.000000  0.000000  0.000000  -33.751134475184344  3.7111924065539195  -3.9491215475038723  41.255405411645455  6.569140856781827  1.5445523171623816  9.101753723351507  7.7226073652655955  10.605757887826458  21.970929326590902  120.000000
0.3447  0.000000  0.000000  0.000000  -33.203835359684454  3.293810228936723  -5.249460200616117  41.02850935124007  6.499135690519795  1.989692606142012  7.822576178245983  10.536279394473551  10.699953858799617  22.40526447355862  120.000000
0.40215  0.000000  0.000000  0.000000  -32.98360376192654  3.060808751176121  -6.269499966093925  40.876977516797616  6.591476321600692  2.4580991276231496  6.678909535424682  13.479027305283033  10.572428685021945  22.83416804582389  120.000000
0.4596  0.000000  0.000000  0.000000  -33.09280288040708  3.0422319512181515  -6.971665918106269  40.77681792458052  6.824248267932489  2.9089486793639336  5.588178866178183  16.590577917789258  10.291818632046516  23.165199083433674  120.000000
0.51705  0.000000  0.000000  0.000000  -33.52260160784882  3.2500614977405333  -7.323584425785629  40.714248748469146  7.139487094964592  3.305495688171806  4.596886407602302  19.882917624506597  9.818060627550082  23.33728724152305  120.000000
0.5745  0.000000  0.000000  0.000000  -34.24738487690486  3.6824718615986374  -7.32145692011817  40.688197194742024  7.472665230508897  3.6406303821257824  3.786331957362469  23.335428227659158  9.096456449228647  23.329266618192513  120.000000
0.63195  0.000000  0.000000  0.000000  -35.23410054431404  4.320870606271986  -7.021550139909401  40.708734637671476  7.787659240168209  3.9602672412995594  3.242928019079695  26.905017408688845  8.07621827812574  23.152002359240804  120.000000
0.6894  0.000000  0.000000  0.000000  -36.451132974261256  5.128437190514758  -6.508047956322939  40.79869386107154  8.069189752198698  4.3286899855338525  3.0417561282054515  30.54083121822123  6.711752524481319  22.835697487603394  120.000000
0.74685  0.000000  0.000000  0.000000  -37.86795083993609  6.057164854067369  -5.846147699674037  40.9875253819451  8.307016496123817  4.788031295308534  3.2182921241612  34.18937206395589  4.978263494868068  22.416935150604203  120.000000
0.8043  0.000000  0.000000  0.000000  -39.446724962076864  7.058524516516557  -5.0802390715679735  41.29818874891589  8.506197869146607  5.3576213250235005  3.7555502410405195  37.79301292553847  2.881258461981183  21.932815540834998  120.000000
0.86175  0.000000  0.000000  0.000000  -41.13624623508983  8.083281747776711  -4.2340489217918655  41.736576315062145  8.693569302015618  6.0329182734031255  4.58108372099947  41.29103561124823  0.46581497415268075  21.41879402770707  120.000000
0.9192  0.000000  0.000000  0.000000  -42.869974882886396  9.08752742590152  -3.3172744770823366  42.284717759541316  8.909947515885834  6.788973563787127  5.582505201775826  44.620509168902515  -2.1837678135361642  20.90368590935201  120.000000
0.97665  0.000000  0.000000  0.000000  -44.57067755578315  10.039455630043992  -2.3294207493806747  42.900160040113896  9.194033083870279  7.59168819233716  6.638480062310579  47.72509869925581  -4.953129667255323  20.40748652378024  120.000000
1.0341  0.000000  0.000000  0.000000  -46.16035787705353  10.928051348126369  -1.2645681772883761  43.5283064379534  9.565814913420597  8.403714650920678  7.649120446034657  50.56512558965306  -7.708930956934644  19.94126064991124  120.000000
1.09155  0.000000  0.000000  0.000000  -47.57969146025093  11.75548137541462  -0.11782810778019426  44.11264255570215  10.017960321484479  9.189025675686501  8.543961626874443  53.12333943004209  -10.306443264138517  19.50680023928319  120.000000
1.149  0.000000  0.000000  0.000000  -48.80158750423463  12.523399771063541  1.106487901434241  44.607507966190084  10.519634689997211  9.91491117144336  9.281437047514462  55.3983001471347  -12.60852328866423  19.100395074621787  120.000000
1.20645  0.000000  0.000000  0.000000  -49.82707034719515  13.225399826243503  2.388418077324829  44.99362111314296  11.027514785477125  10.554895401142474  9.849741584003329  57.398169136840195  -14.515912484228929  18.71714586206951  120.000000
1.2639  0.000000  0.000000  0.000000  -50.67335582716878  13.84500724256904  3.689229472723815  45.27707734237632  11.49808234658955  11.090189318898592  10.263869782479349  59.13704385623929  -15.990497784669  18.356958198766563  120.000000
1.32135  0.000000  0.000000  0.000000  -51.35924445447085  14.360475025793615  4.9496870223964065  45.480890101319986  11.896192624916218  11.507664089866426  10.554333060633226  60.63130244460099  -17.059890387341873  18.024530137863596  120.000000
1.3788  0.000000  0.000000  0.000000  -51.89387378647142  14.75045220101128  6.093461984879611  45.63184970710756  12.199468175507313  11.797854947569343  10.756410455270567  61.89339888351706  -17.801969139305434  17.728148956382185  120.000000
1.43625  0.000000  0.000000  0.000000  -52.27397166554672  14.999217265040896  7.03314142462346  45.752142787596966  12.397825465848838  11.954978845351576  10.902636807571078  62.9271050601094  -18.317963780025018  17.476433292809848  120.000000
1.4937  0.000000  0.000000  0.000000  -52.486125220433195  15.098359341470571  7.679012085980738  45.85326726853257  12.490325615075047  11.979266360725907  11.018853292243802  63.72310257034637  -18.704079445045345  17.277051998024625  120.000000
1.55115  0.000000  0.000000  0.000000  -52.51429463263105  15.046322983160017  7.94853232854191  45.93707483435001  12.481562056958587  11.879890793001673  11.122613613188543  64.25843716152252  -19.031535887873535  17.135637470597484  120.000000
1.6086  0.000000  0.000000  0.000000  -52.34552190991683  14.844394016815874  7.776593460526919  45.99705192485516  12.381152067128404  11.677787738861968  11.22165258901536  64.4983686432697  -19.338974421603776  17.056128037677833  120.000000
1.66605  0.000000  0.000000  0.000000  -51.97359985075317  14.49182706630037  7.125275382309157  46.02054242389939  12.207782573206957  11.405763425212307  11.313487921324704  64.40084949967125  -19.635982971662713  17.039080663589832  120.000000
1.7235  0.000000  0.000000  0.000000  -51.39763171509003  13.982778680361182  5.990669692363348  45.98905733207931  11.99570342099152  11.10450028755835  11.38529871924116  63.922940717697315  -19.91314972641841  17.078618136098452  120.000000
1.78095  0.000000  0.000000  0.000000  -50.620753876912794  13.306865882155053  4.406035472692573  45.87972405505834  11.798924031121734  10.815330703699592  11.415785463759567  63.026784282889516  -20.153652796054185  17.1586217935137  120.000000
